<svg width="1004" height="272" viewBox="0 0 1004 272" xmlns="http://www.w3.org/2000/svg">
  <g id="seda-press-logo">
    <g id="icon">
      <path id="left-page" d="M0 0 L96 58 C135 82 153 112 153 152 L153 272 C116 207 62 178 0 169 Z" fill="#0B2341"/>
      <path id="right-page-curve" d="M158 155 C174 113 201 79 217 70 L217 78 C199 88 176 119 164 159 Z" fill="#6B7280"/>
      <rect id="right-page-spine" x="210" y="70" width="7" height="158" fill="#6B7280"/>
      <path id="right-page-base" d="M153 272 C168 234 190 220 217 228 L217 235 C190 227 170 239 158 272 Z" fill="#6B7280"/>
      <path id="bottom-page" d="M153 272 C177 241 194 239 217 245 L217 258 C192 251 176 252 153 272 Z" fill="#0B2341"/>
    </g>

    <g id="seda-wordmark" fill="#0B2341" transform="translate(307 33) scale(0.8037 0.6095) translate(0 43)">
      <path id="letter-s" d="M0 109 L7 109 C10 139 32 158 67 158 C97 158 116 144 116 122 C116 104 105 92 81 82 L46 68 C18 57 4 38 4 12 C4 -21 31 -43 73 -43 C91 -43 108 -39 124 -30 L131 -41 L137 -41 L137 8 L130 8 C125 -18 105 -34 75 -34 C48 -34 31 -22 31 -3 C31 13 42 24 66 34 L101 48 C131 60 145 79 145 107 C145 144 114 167 67 167 C45 167 25 161 9 149 L6 164 L0 164 Z"/>
      <path id="letter-e" d="M205 -38 L337 -38 L342 7 L335 7 C329 -15 318 -27 300 -28 L246 -28 L246 52 L292 52 C307 52 314 43 317 24 L324 24 L324 91 L317 91 C314 71 307 62 292 62 L246 62 L246 154 L306 154 C329 153 342 137 348 108 L355 108 L349 164 L205 164 L205 157 L226 154 L226 -28 L205 -31 Z"/>
      <path id="letter-d" d="M425 -38 L507 -38 C564 -38 604 1 604 61 C604 123 564 164 505 164 L425 164 L425 157 L446 154 L446 -28 L425 -31 Z M466 -28 L466 154 L502 154 C551 154 581 119 581 62 C581 7 551 -28 503 -28 Z"/>
      <path id="letter-a" d="M681 164 L681 157 L699 153 L768 -41 L778 -41 L849 154 L866 157 L866 164 L795 164 L795 157 L824 154 L804 97 L728 97 L708 153 L735 157 L735 164 Z M732 86 L800 86 L766 -10 Z"/>
    </g>

    <g id="press-lockup" fill="#6B7280">
      <rect id="press-left-rule" x="308" y="231" width="112" height="3" fill="#6B7280"/>
      <rect id="press-right-rule" x="887" y="231" width="116" height="3" fill="#6B7280"/>
      <g id="press-wordmark" transform="translate(467 212) scale(0.579 0.296) translate(-160 25)">
        <path id="p" d="M160 -22 L207 -22 C234 -22 252 -8 252 14 C252 38 234 52 204 52 L187 52 L187 98 L207 101 L207 106 L160 106 L160 101 L174 98 L174 -15 L160 -18 Z M187 -15 L187 45 L204 45 C225 45 237 33 237 15 C237 -4 225 -15 205 -15 Z"/>
        <path id="r" d="M289 -22 L338 -22 C365 -22 382 -9 382 12 C382 29 371 41 351 46 L384 98 L399 101 L399 106 L371 106 L335 48 L316 48 L316 98 L333 101 L333 106 L289 106 L289 101 L303 98 L303 -15 L289 -18 Z M316 -15 L316 41 L336 41 C356 41 367 30 367 13 C367 -5 356 -15 337 -15 Z"/>
        <path id="e" d="M435 -22 L510 -22 L513 8 L508 8 C505 -7 498 -15 486 -16 L462 -16 L462 37 L484 37 C494 37 499 31 501 18 L506 18 L506 63 L501 63 C499 50 494 44 484 44 L462 44 L462 99 L490 99 C504 98 512 88 516 69 L521 69 L517 106 L435 106 L435 101 L449 98 L449 -15 L435 -18 Z"/>
        <path id="s-one" d="M553 70 L558 70 C561 90 575 103 597 103 C616 103 628 94 628 80 C628 68 621 61 606 55 L580 45 C562 38 554 26 554 9 C554 -12 572 -25 599 -25 C611 -25 623 -22 634 -16 L638 -24 L643 -24 L643 9 L638 9 C634 -8 621 -18 602 -18 C585 -18 574 -11 574 2 C574 12 581 19 596 25 L621 35 C640 43 648 55 648 73 C648 96 628 110 598 110 C583 110 570 106 559 98 L557 108 L553 108 Z"/>
        <path id="s-two" d="M699 70 L704 70 C707 90 721 103 743 103 C762 103 774 94 774 80 C774 68 767 61 752 55 L726 45 C708 38 700 26 700 9 C700 -12 718 -25 745 -25 C757 -25 769 -22 780 -16 L784 -24 L789 -24 L789 9 L784 9 C780 -8 767 -18 748 -18 C731 -18 720 -11 720 2 C720 12 727 19 742 25 L767 35 C786 43 794 55 794 73 C794 96 774 110 744 110 C729 110 716 106 705 98 L703 108 L699 108 Z"/>
      </g>
    </g>
  </g>
</svg>
