<svg width="730" height="154" viewBox="0 0 730 154" xmlns="http://www.w3.org/2000/svg">
  <!-- SEDA Letters -->
  <!-- S -->
  <path d="M0,108 L0,95 L18,95 L18,108 Q18,125 42,125 L60,125 Q78,125 78,108 L78,100 Q78,88 60,88 L30,88 Q0,88 0,60 L0,46 Q0,24 30,24 L60,24 Q90,24 90,46 L90,58 L72,58 L72,46 Q72,32 55,32 L35,32 Q18,32 18,46 L18,55 Q18,65 35,65 L65,65 Q95,65 95,95 L95,108 Q95,132 65,132 L30,132 Q0,132 0,108 Z" fill="#2563eb"/>
  <!-- E -->
  <path d="M110,26 L200,26 L200,38 L128,38 L128,72 L190,72 L190,84 L128,84 L128,120 L200,120 L200,132 L110,132 Z" fill="#2563eb"/>
  <!-- D -->
  <path d="M215,26 L275,26 Q310,26 310,60 L310,98 Q310,132 275,132 L215,132 Z M233,38 L233,120 L270,120 Q292,120 292,98 L292,60 Q292,38 270,38 Z" fill="#2563eb"/>
  <!-- A with gold triangle -->
  <path d="M320,132 L370,26 L390,26 L440,132 L420,132 L408,104 L352,104 L340,132 Z M358,92 L402,92 L380,42 Z" fill="#2563eb"/>
  <!-- Gold triangle accent in A -->
  <path d="M369,82 L380,58 L391,82 Z" fill="#b8963e"/>

  <!-- Vertical separator line -->
  <line x1="468" y1="30" x2="468" y2="128" stroke="#b8963e" stroke-width="2"/>

  <!-- Right side text -->
  <!-- INTERNATIONAL -->
  <text x="490" y="52" font-family="Arial, Helvetica, sans-serif" font-size="26" font-weight="600" letter-spacing="3" fill="#2563eb">INTERNATIONAL</text>
  <!-- EDUCATION -->
  <text x="490" y="82" font-family="Arial, Helvetica, sans-serif" font-size="26" font-weight="600" letter-spacing="3" fill="#2563eb">EDUCATION</text>
  <!-- Chinese text -->
  <text x="490" y="110" font-family="'Microsoft YaHei', 'PingFang SC', sans-serif" font-size="18" letter-spacing="4" fill="#2563eb">&#x65B0;&#x52A0;&#x5761;&#x56FD;&#x9645;&#x6559;&#x80B2;&#x5E73;&#x53F0;</text>
  <!-- SINGAPORE EDUCATION PATHWAYS -->
  <text x="490" y="128" font-family="Arial, Helvetica, sans-serif" font-size="10" letter-spacing="2" fill="#2563eb">SINGAPORE EDUCATION PATHWAYS</text>
</svg>
